<?xml version="1.0" encoding="utf-8"?>
<!-- Generator: Adobe Illustrator 23.0.3, SVG Export Plug-In . SVG Version: 6.00 Build 0)  -->
<svg version="1.1" id="Layer_1" xmlns="http://www.w3.org/2000/svg" xmlns:xlink="http://www.w3.org/1999/xlink" x="0px" y="0px"
	 viewBox="0 0 250 250" style="enable-background:new 0 0 250 250;" xml:space="preserve">
<style type="text/css">
	.st0{fill:#D69929;}
</style>
<g>
	<path class="st0" d="M125,28.41c53.26,0,96.59,43.33,96.59,96.59s-43.33,96.59-96.59,96.59S28.41,178.26,28.41,125
		S71.74,28.41,125,28.41 M125,18.41C66.13,18.41,18.41,66.13,18.41,125S66.13,231.59,125,231.59S231.59,183.87,231.59,125
		S183.87,18.41,125,18.41L125,18.41z"/>
</g>
<g>
	<polygon class="st0" points="59.2,150.7 68.47,150.7 68.47,126.93 86.75,126.93 86.75,119.2 68.47,119.2 68.47,107.16 
		91.14,107.16 91.14,99.3 59.2,99.3 	"/>
	<polygon class="st0" points="109.71,107.16 132.39,107.16 132.39,99.3 100.45,99.3 100.45,150.7 109.71,150.7 109.71,126.93 
		128,126.93 128,119.2 109.71,119.2 	"/>
	<path class="st0" d="M193.63,94.73c-1.56-1.56-4.1-1.56-5.66,0l-9.5,9.5c-4.24-3.09-9.47-4.92-15.12-4.92
		c-14.19,0-25.7,11.51-25.7,25.7c0,5.65,1.83,10.88,4.92,15.12l-9.5,9.5c-1.56,1.56-1.56,4.09,0,5.66c0.78,0.78,1.8,1.17,2.83,1.17
		s2.05-0.39,2.83-1.17l9.5-9.5c4.24,3.09,9.47,4.92,15.12,4.92c14.19,0,25.7-11.51,25.7-25.7c0-5.65-1.83-10.88-4.92-15.12l9.5-9.5
		C195.19,98.82,195.19,96.29,193.63,94.73z M145.66,125c0-9.76,7.94-17.7,17.7-17.7c3.43,0,6.63,1,9.34,2.7l-24.35,24.35
		C146.66,131.63,145.66,128.43,145.66,125z M163.35,142.7c-3.43,0-6.63-1-9.34-2.7l24.35-24.35c1.7,2.72,2.7,5.91,2.7,9.34
		C181.05,134.76,173.11,142.7,163.35,142.7z"/>
</g>
</svg>
